<?xml version="1.0" standalone="no"?>
<!DOCTYPE svg PUBLIC "-//W3C//DTD SVG 20010904//EN"
 "http://www.w3.org/TR/2001/REC-SVG-20010904/DTD/svg10.dtd">
<svg version="1.0" xmlns="http://www.w3.org/2000/svg"
 width="700.000000pt" height="700.000000pt" viewBox="0 0 700.000000 700.000000"
 preserveAspectRatio="xMidYMid meet">
<metadata>
Created by potrace 1.14, written by Peter Selinger 2001-2017
</metadata>
<g transform="translate(0.000000,700.000000) scale(0.100000,-0.100000)"
fill="#000000" stroke="none">
<path d="M3280 6523 c-262 -25 -456 -61 -645 -118 -1290 -391 -2165 -1565
-2165 -2905 0 -1518 1121 -2798 2631 -3005 264 -36 627 -30 899 16 1459 244
2530 1510 2530 2989 0 1681 -1373 3044 -3050 3028 -91 0 -181 -3 -200 -5z
m746 -789 c62 -29 144 -113 144 -147 0 -47 -61 -129 -135 -179 -134 -91 -182
-171 -173 -291 3 -34 9 -71 13 -81 7 -17 5 -18 -18 -12 l-27 6 0 -74 c0 -40
-7 -111 -16 -156 l-15 -82 88 -92 c48 -50 158 -163 244 -252 l156 -161 51 23
c144 63 285 200 356 346 63 127 80 199 80 333 0 133 -17 206 -78 330 -82 166
-198 270 -428 381 -33 16 -38 23 -38 52 0 32 2 34 28 28 53 -12 192 -87 271
-146 137 -101 239 -248 293 -420 20 -65 23 -96 23 -225 0 -130 -3 -160 -23
-225 -71 -225 -220 -405 -415 -501 -67 -33 -77 -49 -29 -49 27 0 138 22 177
35 11 3 7 -2 -10 -11 -16 -10 -57 -25 -90 -34 -33 -10 -59 -21 -57 -26 1 -5
275 -292 609 -637 334 -345 612 -635 619 -645 10 -14 13 -11 22 23 45 171 64
457 43 641 -49 427 -235 874 -504 1213 -45 57 -52 62 -57 43 -5 -21 -7 -20
-32 12 -25 31 -28 43 -28 107 0 71 0 72 20 54 19 -17 21 -17 41 1 21 19 21 19
15 -16 -6 -32 -1 -41 52 -101 233 -263 436 -667 522 -1034 39 -167 53 -295 52
-485 0 -187 -18 -342 -57 -477 -15 -51 -15 -53 15 -111 72 -142 57 -298 -40
-421 -60 -76 -186 -141 -271 -141 -22 0 -35 -10 -59 -44 -46 -68 -54 -68 -46
-2 7 50 6 56 -11 56 -10 0 -36 9 -59 19 l-40 18 -39 -71 c-135 -249 -361 -502
-573 -641 l-43 -28 -27 26 -26 26 24 26 c50 53 173 149 160 125 -11 -21 -8
-20 29 9 114 91 285 305 381 478 l52 92 -848 878 c-465 483 -890 922 -943 975
l-96 98 -75 -16 c-105 -22 -299 -15 -395 16 -400 126 -646 521 -570 916 8 42
17 79 20 82 3 3 37 -28 77 -69 39 -41 140 -144 225 -230 l153 -156 224 55 224
56 52 180 c38 134 48 181 39 187 -26 16 -247 22 -394 10 -124 -9 -330 -43
-411 -66 -11 -3 1 4 26 15 119 56 366 94 617 94 147 1 194 4 198 14 2 7 -94
115 -220 245 -185 191 -221 233 -208 241 10 5 72 11 138 14 183 7 313 -25 465
-114 162 -94 323 -309 361 -480 8 -37 17 -54 30 -57 23 -6 23 -8 4 36 -32 76
-8 161 65 232 41 40 49 40 29 2 -7 -12 15 3 47 33 33 30 77 69 98 85 33 26 38
35 33 57 -12 47 -57 88 -146 130 -77 37 -94 42 -159 42 -39 -1 -70 1 -68 4 3
2 35 13 73 23 83 23 148 18 219 -17z m-2346 -1115 c-58 -26 -193 -65 -250 -72
-44 -5 -45 -5 -17 9 15 8 70 24 123 35 52 11 111 26 132 34 56 20 63 16 12 -6z
m710 -854 c47 -9 108 -23 135 -32 78 -24 207 -75 203 -79 -2 -2 -28 6 -57 17
-157 59 -368 86 -548 69 -173 -16 -180 -19 -232 -96 -25 -36 -55 -72 -67 -81
-31 -20 -66 -13 -83 18 -13 23 -12 28 22 72 35 46 36 46 39 19 3 -25 5 -24 41
30 22 34 48 60 61 64 105 26 341 26 486 -1z m-706 -68 c-4 -43 -12 -77 -17
-77 -18 0 -47 32 -47 52 0 20 59 113 66 105 2 -2 1 -38 -2 -80z m165 -494 c24
-18 51 -33 60 -33 9 0 43 21 75 45 64 48 59 48 152 14 79 -30 84 -36 96 -122
13 -89 15 -91 102 -102 79 -9 81 -10 101 -56 l18 -40 46 8 c103 17 203 -9 238
-63 22 -34 21 -99 -1 -142 -9 -17 -16 -51 -16 -76 0 -57 37 -103 112 -140 77
-39 98 -33 98 28 0 34 24 61 80 87 45 21 52 29 64 69 12 41 16 45 49 48 32 3
36 0 42 -27 4 -19 11 -28 20 -25 18 7 45 -8 131 -73 45 -33 81 -53 98 -53 17
0 57 23 114 66 101 76 103 77 235 19 45 -20 86 -37 91 -38 8 -2 30 44 62 128
5 12 9 -16 11 -72 3 -69 0 -100 -12 -123 -13 -25 -14 -40 -4 -102 17 -109 20
-112 135 -127 54 -7 108 -17 120 -22 34 -12 124 -202 124 -260 0 -9 -29 -57
-65 -105 -38 -51 -65 -98 -65 -112 0 -14 23 -57 52 -96 29 -39 53 -73 55 -75
1 -2 28 16 60 40 91 68 259 235 334 332 38 49 69 85 69 80 0 -4 -12 -48 -27
-98 l-27 -90 -121 -120 c-66 -66 -154 -144 -196 -174 -73 -51 -78 -57 -104
-126 -15 -39 -40 -89 -54 -111 l-27 -39 -108 -16 c-77 -11 -112 -21 -126 -35
-13 -13 -23 -51 -34 -124 -18 -124 -23 -130 -142 -180 -130 -54 -137 -53 -239
24 -49 36 -98 66 -109 66 -12 0 -61 -29 -110 -65 -48 -36 -98 -65 -110 -65
-51 0 -229 77 -252 108 -6 9 -17 62 -24 119 -16 131 -21 135 -160 152 -61 8
-107 19 -116 28 -32 32 -104 203 -104 247 0 13 28 61 65 109 38 50 65 96 65
110 0 13 -22 53 -50 90 -44 59 -55 67 -112 86 -35 12 -70 26 -78 32 -16 11
-12 10 75 -16 l40 -12 1 46 c0 56 56 195 93 232 22 21 42 27 126 38 55 7 108
17 117 22 9 5 20 26 23 47 3 20 8 48 11 62 5 24 5 24 -15 6 -40 -36 -162 7
-212 76 -55 74 -61 124 -28 213 30 81 25 94 -51 125 -36 15 -81 30 -101 33
l-36 5 4 -41 c4 -37 0 -49 -36 -96 -23 -30 -41 -62 -41 -71 0 -9 18 -41 40
-70 46 -62 48 -78 19 -156 -29 -76 -46 -91 -116 -99 -96 -10 -100 -14 -108
-90 -9 -79 -27 -103 -102 -134 -72 -29 -92 -27 -153 19 -29 22 -62 40 -72 40
-10 0 -43 -19 -74 -41 -47 -36 -59 -41 -91 -36 -20 4 -62 19 -92 34 l-56 28
-11 72 c-6 39 -16 78 -23 86 -7 9 -39 18 -74 22 -34 4 -69 11 -78 16 -16 8
-62 102 -74 149 -5 20 4 38 39 85 25 33 45 67 45 75 0 8 -20 42 -45 75 -51 68
-51 73 -1 175 l32 65 72 10 c40 6 78 15 84 22 7 7 17 45 23 85 11 70 12 73 51
95 22 13 60 29 85 37 51 15 59 13 129 -41z m1565 -427 c27 -11 35 -21 40 -51
4 -20 6 -39 3 -41 -3 -3 -165 62 -175 71 -2 1 4 10 13 19 20 20 74 21 119 2z
m-1000 -625 c4 -5 -8 -12 -26 -16 -18 -4 -41 -9 -52 -12 -12 -3 -16 -1 -12 6
4 6 21 15 39 20 43 12 45 12 51 2z"/>
<path d="M5384 2589 c-72 -21 -117 -106 -95 -178 17 -59 90 -114 104 -78 3 7
6 5 6 -5 1 -10 7 -18 14 -18 18 0 131 216 123 235 -12 33 -101 59 -152 44z"/>
<path d="M1799 2887 c-165 -88 -163 -328 4 -412 185 -92 383 76 326 278 -13
49 -73 115 -124 138 -59 27 -150 25 -206 -4z"/>
<path d="M3364 2149 c-27 -4 -71 -16 -96 -27 -47 -20 -131 -91 -149 -124 -8
-16 -1 -15 63 8 82 29 216 90 266 121 l33 21 -33 3 c-18 2 -56 1 -84 -2z"/>
<path d="M3556 2111 c-12 -19 -165 -102 -251 -135 -50 -19 -121 -41 -160 -48
-66 -14 -69 -16 -78 -49 -5 -19 -7 -65 -5 -104 8 -122 83 -234 195 -291 53
-26 67 -29 158 -29 91 0 105 3 155 29 70 36 141 110 168 176 19 46 20 51 4 46
-42 -12 -188 -36 -222 -36 -26 0 -40 5 -44 16 -4 9 -5 19 -2 21 2 2 46 13 97
24 52 10 118 26 148 35 l53 15 -6 50 c-15 113 -64 199 -150 261 -42 30 -52 33
-60 19z"/>
</g>
</svg>
